<mxfile host="app.diagrams.net" modified="2023-02-19T07:50:29.905Z" agent="5.0 (Windows)" etag="t9xHg7OMt1aKJp56-IPR" version="20.8.20" type="github">
  <diagram name="Page-1" id="_LKrcDxkkdd0X35gAh0F">
    <mxGraphModel dx="1956" dy="1131" grid="1" gridSize="10" guides="1" tooltips="1" connect="1" arrows="1" fold="1" page="1" pageScale="1" pageWidth="850" pageHeight="1100" math="0" shadow="0">
      <root>
        <mxCell id="0" />
        <mxCell id="1" parent="0" />
        <mxCell id="P6Q-9h-wd84fOYCl-01U-7" value="" style="edgeStyle=orthogonalEdgeStyle;rounded=0;orthogonalLoop=1;jettySize=auto;html=1;fontSize=14;" edge="1" parent="1" source="P6Q-9h-wd84fOYCl-01U-2" target="P6Q-9h-wd84fOYCl-01U-4">
          <mxGeometry relative="1" as="geometry" />
        </mxCell>
        <mxCell id="P6Q-9h-wd84fOYCl-01U-2" value="&lt;font style=&quot;font-size: 16px;&quot;&gt;&lt;font style=&quot;font-size: 16px;&quot;&gt;START&lt;/font&gt;&lt;/font&gt;" style="strokeWidth=2;html=1;shape=mxgraph.flowchart.terminator;whiteSpace=wrap;" vertex="1" parent="1">
          <mxGeometry x="350" y="35" width="100" height="60" as="geometry" />
        </mxCell>
        <mxCell id="P6Q-9h-wd84fOYCl-01U-6" value="" style="edgeStyle=orthogonalEdgeStyle;rounded=0;orthogonalLoop=1;jettySize=auto;html=1;fontSize=14;" edge="1" parent="1" source="P6Q-9h-wd84fOYCl-01U-3" target="P6Q-9h-wd84fOYCl-01U-5">
          <mxGeometry relative="1" as="geometry" />
        </mxCell>
        <mxCell id="P6Q-9h-wd84fOYCl-01U-3" value="&lt;font style=&quot;font-size: 14px;&quot;&gt;&lt;font style=&quot;font-size: 14px;&quot;&gt;Tenant Register&lt;/font&gt;&lt;/font&gt;" style="rounded=1;whiteSpace=wrap;html=1;absoluteArcSize=1;arcSize=14;strokeWidth=2;" vertex="1" parent="1">
          <mxGeometry x="320" y="120" width="160" height="50" as="geometry" />
        </mxCell>
        <mxCell id="P6Q-9h-wd84fOYCl-01U-4" value="&lt;font style=&quot;font-size: 14px;&quot;&gt;&lt;font style=&quot;font-size: 14px;&quot;&gt;Tenant Login&lt;/font&gt;&lt;/font&gt;" style="rounded=1;whiteSpace=wrap;html=1;absoluteArcSize=1;arcSize=14;strokeWidth=2;" vertex="1" parent="1">
          <mxGeometry x="320" y="200" width="160" height="50" as="geometry" />
        </mxCell>
        <mxCell id="P6Q-9h-wd84fOYCl-01U-10" value="" style="edgeStyle=orthogonalEdgeStyle;rounded=0;orthogonalLoop=1;jettySize=auto;html=1;fontSize=14;" edge="1" parent="1" source="P6Q-9h-wd84fOYCl-01U-5" target="P6Q-9h-wd84fOYCl-01U-8">
          <mxGeometry relative="1" as="geometry" />
        </mxCell>
        <mxCell id="P6Q-9h-wd84fOYCl-01U-5" value="Mengecek data diri di profile" style="rounded=1;whiteSpace=wrap;html=1;absoluteArcSize=1;arcSize=14;strokeWidth=2;" vertex="1" parent="1">
          <mxGeometry x="319" y="283" width="160" height="50" as="geometry" />
        </mxCell>
        <mxCell id="P6Q-9h-wd84fOYCl-01U-12" value="" style="edgeStyle=orthogonalEdgeStyle;rounded=0;orthogonalLoop=1;jettySize=auto;html=1;fontSize=14;" edge="1" parent="1" source="P6Q-9h-wd84fOYCl-01U-8" target="P6Q-9h-wd84fOYCl-01U-11">
          <mxGeometry relative="1" as="geometry" />
        </mxCell>
        <mxCell id="P6Q-9h-wd84fOYCl-01U-8" value="Add Product in list product" style="shape=parallelogram;html=1;strokeWidth=2;perimeter=parallelogramPerimeter;whiteSpace=wrap;rounded=1;arcSize=0;size=0.11249999999999999;fontSize=14;" vertex="1" parent="1">
          <mxGeometry x="289" y="360" width="220" height="60" as="geometry" />
        </mxCell>
        <mxCell id="P6Q-9h-wd84fOYCl-01U-14" value="" style="edgeStyle=orthogonalEdgeStyle;rounded=0;orthogonalLoop=1;jettySize=auto;html=1;fontSize=14;" edge="1" parent="1" source="P6Q-9h-wd84fOYCl-01U-11" target="P6Q-9h-wd84fOYCl-01U-13">
          <mxGeometry relative="1" as="geometry" />
        </mxCell>
        <mxCell id="P6Q-9h-wd84fOYCl-01U-11" value="Edit or Delete product in List Product" style="rounded=1;whiteSpace=wrap;html=1;absoluteArcSize=1;arcSize=14;strokeWidth=2;" vertex="1" parent="1">
          <mxGeometry x="319" y="450" width="160" height="50" as="geometry" />
        </mxCell>
        <mxCell id="P6Q-9h-wd84fOYCl-01U-16" value="" style="edgeStyle=orthogonalEdgeStyle;rounded=0;orthogonalLoop=1;jettySize=auto;html=1;fontSize=14;" edge="1" parent="1" source="P6Q-9h-wd84fOYCl-01U-13" target="P6Q-9h-wd84fOYCl-01U-15">
          <mxGeometry relative="1" as="geometry" />
        </mxCell>
        <mxCell id="P6Q-9h-wd84fOYCl-01U-13" value="Add Member in list member" style="shape=parallelogram;html=1;strokeWidth=2;perimeter=parallelogramPerimeter;whiteSpace=wrap;rounded=1;arcSize=0;size=0.11249999999999999;fontSize=14;" vertex="1" parent="1">
          <mxGeometry x="289" y="530" width="220" height="60" as="geometry" />
        </mxCell>
        <mxCell id="P6Q-9h-wd84fOYCl-01U-18" value="" style="edgeStyle=orthogonalEdgeStyle;rounded=0;orthogonalLoop=1;jettySize=auto;html=1;fontSize=14;" edge="1" parent="1" source="P6Q-9h-wd84fOYCl-01U-15" target="P6Q-9h-wd84fOYCl-01U-17">
          <mxGeometry relative="1" as="geometry" />
        </mxCell>
        <mxCell id="P6Q-9h-wd84fOYCl-01U-15" value="Edit or Delete member in list member" style="rounded=1;whiteSpace=wrap;html=1;absoluteArcSize=1;arcSize=14;strokeWidth=2;" vertex="1" parent="1">
          <mxGeometry x="319" y="620" width="160" height="50" as="geometry" />
        </mxCell>
        <mxCell id="P6Q-9h-wd84fOYCl-01U-21" value="" style="edgeStyle=orthogonalEdgeStyle;rounded=0;orthogonalLoop=1;jettySize=auto;html=1;fontSize=14;" edge="1" parent="1" source="P6Q-9h-wd84fOYCl-01U-17" target="P6Q-9h-wd84fOYCl-01U-20">
          <mxGeometry relative="1" as="geometry" />
        </mxCell>
        <mxCell id="P6Q-9h-wd84fOYCl-01U-17" value="Tenant add product to cart" style="shape=parallelogram;html=1;strokeWidth=2;perimeter=parallelogramPerimeter;whiteSpace=wrap;rounded=1;arcSize=0;size=0.11249999999999999;fontSize=14;" vertex="1" parent="1">
          <mxGeometry x="289" y="700" width="220" height="60" as="geometry" />
        </mxCell>
        <mxCell id="P6Q-9h-wd84fOYCl-01U-27" value="" style="edgeStyle=orthogonalEdgeStyle;rounded=0;orthogonalLoop=1;jettySize=auto;html=1;fontSize=14;" edge="1" parent="1" source="P6Q-9h-wd84fOYCl-01U-19" target="P6Q-9h-wd84fOYCl-01U-26">
          <mxGeometry relative="1" as="geometry" />
        </mxCell>
        <mxCell id="P6Q-9h-wd84fOYCl-01U-19" value="Tenant add discount" style="shape=parallelogram;html=1;strokeWidth=2;perimeter=parallelogramPerimeter;whiteSpace=wrap;rounded=1;arcSize=0;size=0.11249999999999999;fontSize=14;" vertex="1" parent="1">
          <mxGeometry x="290" y="941" width="220" height="60" as="geometry" />
        </mxCell>
        <mxCell id="P6Q-9h-wd84fOYCl-01U-22" value="" style="edgeStyle=orthogonalEdgeStyle;rounded=0;orthogonalLoop=1;jettySize=auto;html=1;fontSize=14;" edge="1" parent="1" source="P6Q-9h-wd84fOYCl-01U-20" target="P6Q-9h-wd84fOYCl-01U-19">
          <mxGeometry relative="1" as="geometry" />
        </mxCell>
        <mxCell id="P6Q-9h-wd84fOYCl-01U-25" style="edgeStyle=orthogonalEdgeStyle;rounded=0;orthogonalLoop=1;jettySize=auto;html=1;fontSize=14;entryX=1.006;entryY=0.6;entryDx=0;entryDy=0;entryPerimeter=0;" edge="1" parent="1" source="P6Q-9h-wd84fOYCl-01U-20" target="P6Q-9h-wd84fOYCl-01U-26">
          <mxGeometry relative="1" as="geometry">
            <mxPoint x="520" y="1060" as="targetPoint" />
            <Array as="points">
              <mxPoint x="560" y="850" />
              <mxPoint x="560" y="1060" />
            </Array>
          </mxGeometry>
        </mxCell>
        <mxCell id="P6Q-9h-wd84fOYCl-01U-20" value="&lt;div&gt;Customer is &lt;br&gt;&lt;/div&gt;&lt;div&gt;member ?&lt;br&gt;&lt;/div&gt;" style="strokeWidth=2;html=1;shape=mxgraph.flowchart.decision;whiteSpace=wrap;fontSize=14;" vertex="1" parent="1">
          <mxGeometry x="339.5" y="790" width="119" height="119" as="geometry" />
        </mxCell>
        <mxCell id="P6Q-9h-wd84fOYCl-01U-23" value="yes" style="text;html=1;align=center;verticalAlign=middle;resizable=0;points=[];autosize=1;strokeColor=none;fillColor=none;fontSize=14;" vertex="1" parent="1">
          <mxGeometry x="400" y="903" width="50" height="30" as="geometry" />
        </mxCell>
        <mxCell id="P6Q-9h-wd84fOYCl-01U-24" value="no" style="text;html=1;align=center;verticalAlign=middle;resizable=0;points=[];autosize=1;strokeColor=none;fillColor=none;fontSize=14;" vertex="1" parent="1">
          <mxGeometry x="458.5" y="820" width="40" height="30" as="geometry" />
        </mxCell>
        <mxCell id="P6Q-9h-wd84fOYCl-01U-30" value="" style="edgeStyle=orthogonalEdgeStyle;rounded=0;orthogonalLoop=1;jettySize=auto;html=1;fontSize=14;" edge="1" parent="1" source="P6Q-9h-wd84fOYCl-01U-26" target="P6Q-9h-wd84fOYCl-01U-28">
          <mxGeometry relative="1" as="geometry" />
        </mxCell>
        <mxCell id="P6Q-9h-wd84fOYCl-01U-26" value="Tenant Continue Payment" style="rounded=1;whiteSpace=wrap;html=1;absoluteArcSize=1;arcSize=14;strokeWidth=2;" vertex="1" parent="1">
          <mxGeometry x="320" y="1030" width="160" height="50" as="geometry" />
        </mxCell>
        <mxCell id="P6Q-9h-wd84fOYCl-01U-32" value="" style="edgeStyle=orthogonalEdgeStyle;rounded=0;orthogonalLoop=1;jettySize=auto;html=1;fontSize=14;" edge="1" parent="1" source="P6Q-9h-wd84fOYCl-01U-28" target="P6Q-9h-wd84fOYCl-01U-31">
          <mxGeometry relative="1" as="geometry" />
        </mxCell>
        <mxCell id="P6Q-9h-wd84fOYCl-01U-28" value="Finish Payment" style="rounded=1;whiteSpace=wrap;html=1;absoluteArcSize=1;arcSize=14;strokeWidth=2;" vertex="1" parent="1">
          <mxGeometry x="320" y="1110" width="160" height="51" as="geometry" />
        </mxCell>
        <mxCell id="P6Q-9h-wd84fOYCl-01U-35" value="" style="edgeStyle=orthogonalEdgeStyle;rounded=0;orthogonalLoop=1;jettySize=auto;html=1;fontSize=16;" edge="1" parent="1" source="P6Q-9h-wd84fOYCl-01U-31" target="P6Q-9h-wd84fOYCl-01U-34">
          <mxGeometry relative="1" as="geometry" />
        </mxCell>
        <mxCell id="P6Q-9h-wd84fOYCl-01U-31" value="Tenant Check Sales Report " style="rounded=1;whiteSpace=wrap;html=1;absoluteArcSize=1;arcSize=14;strokeWidth=2;" vertex="1" parent="1">
          <mxGeometry x="320" y="1190" width="160" height="51" as="geometry" />
        </mxCell>
        <mxCell id="P6Q-9h-wd84fOYCl-01U-34" value="&lt;font style=&quot;font-size: 16px;&quot;&gt;&lt;font style=&quot;font-size: 16px;&quot;&gt;&lt;font style=&quot;font-size: 16px;&quot;&gt;FINISH&lt;/font&gt;&lt;/font&gt;&lt;/font&gt;" style="strokeWidth=2;html=1;shape=mxgraph.flowchart.terminator;whiteSpace=wrap;" vertex="1" parent="1">
          <mxGeometry x="350" y="1270" width="100" height="60" as="geometry" />
        </mxCell>
      </root>
    </mxGraphModel>
  </diagram>
</mxfile>
